<svg width="72" height="50" viewBox="0 0 72 50" fill="none" xmlns="http://www.w3.org/2000/svg">
<path d="M27.4644 22.7773C25.6249 21.6819 23.581 20.9736 21.4581 20.6959C19.3352 20.4181 17.1779 20.5768 15.1185 21.1622C15.0114 21.1954 14.9016 21.2191 14.7903 21.2331C14.8346 19.746 15.3089 18.3036 16.156 17.0805C18.0297 13.8448 21.6149 10.2933 26.0544 10.027C26.4293 10.0047 26.7835 9.84817 27.0524 9.58603C27.3212 9.32388 27.4867 8.97369 27.5185 8.59953L28.1044 1.695C28.1235 1.46853 28.093 1.24062 28.015 1.02716C27.937 0.813696 27.8133 0.619825 27.6527 0.459063C27.4928 0.297389 27.2992 0.17296 27.0857 0.0946403C26.8722 0.0163201 26.6441 -0.0139669 26.4175 0.00593663C16.7893 0.807812 2.38723 8.63562 0.387539 21.2455C-0.934648 29.5867 1.18941 38.4627 5.79676 43.8583C7.05482 45.4392 8.64942 46.7199 10.4646 47.6072C12.2798 48.4944 14.2699 48.966 16.2902 48.9875C18.887 49.091 21.4744 48.6167 23.8657 47.599C26.257 46.5812 28.3926 45.0454 30.1183 43.1022C31.4772 41.4929 32.4601 39.6008 32.9956 37.5637C33.531 35.5266 33.6055 33.3958 33.2136 31.3263C32.9287 29.5709 32.2673 27.898 31.2749 26.4224C30.2826 24.9467 28.9826 23.7033 27.4644 22.7773ZM27.7214 41.0962C26.2861 42.6855 24.5165 43.9371 22.5399 44.7611C20.5633 45.585 18.4288 45.961 16.2896 45.8619C14.7203 45.8436 13.1754 45.4713 11.77 44.7729C10.3646 44.0745 9.13495 43.0679 8.17269 41.8281C4.19551 37.1719 2.30645 29.0955 3.47379 21.7344C5.10113 11.4705 16.34 4.81078 24.8261 3.35734L24.5111 7.06609C18.3961 8.14031 13.9932 13.7655 12.4452 17.5442C11.3827 20.138 11.3932 22.2287 12.4764 23.4311C12.923 23.8905 13.4969 24.2056 14.1243 24.3358C14.7516 24.4659 15.4035 24.4051 15.996 24.1612C17.6348 23.703 19.3491 23.5795 21.0368 23.798C22.7244 24.0165 24.3507 24.5726 25.8188 25.4331C26.9604 26.132 27.9374 27.0695 28.6827 28.1813C29.4281 29.2931 29.9241 30.553 30.1369 31.8745C30.4453 33.4945 30.3885 35.1629 29.9706 36.7582C29.5527 38.3534 28.7844 39.8354 27.7214 41.0962ZM71.0808 31.3261C70.7959 29.5709 70.1346 27.8981 69.1424 26.4225C68.1502 24.9469 66.8505 23.7034 65.3325 22.7773C63.4929 21.6815 61.4488 20.973 59.3256 20.6952C57.2024 20.4175 55.0448 20.5764 52.9852 21.1622C52.8781 21.1955 52.7683 21.2192 52.6571 21.2331C52.7015 19.746 53.1759 18.3036 54.0229 17.0805C55.8966 13.8448 59.4824 10.2933 63.9211 10.027C64.2959 10.0049 64.6502 9.84833 64.919 9.58614C65.1877 9.32396 65.353 8.97368 65.3844 8.59953L65.9704 1.695C65.9898 1.46854 65.9596 1.24055 65.8818 1.02699C65.804 0.813423 65.6804 0.619426 65.5199 0.458553C65.3593 0.297681 65.1655 0.173814 64.9521 0.0956088C64.7387 0.0174036 64.5108 -0.0132526 64.2843 0.00578166C54.656 0.808438 40.253 8.63547 38.2558 21.2453C36.933 29.5866 39.0569 38.4625 43.665 43.8589C44.9229 45.4396 46.5173 46.7201 48.3323 47.6072C50.1472 48.4944 52.137 48.9658 54.1571 48.9873C56.7538 49.0908 59.3411 48.6166 61.7324 47.599C64.1237 46.5814 66.2593 45.0458 67.9852 43.1028C69.3441 41.4934 70.3271 39.6012 70.8626 37.564C71.3981 35.5267 71.4727 33.3958 71.0808 31.3261ZM65.5893 41.097C64.1537 42.686 62.3841 43.9374 60.4075 44.7613C58.431 45.5853 56.2965 45.9614 54.1574 45.8627C52.5883 45.8444 51.0436 45.4722 49.6383 44.7739C48.2331 44.0756 47.0035 43.0692 46.0413 41.8297C42.0633 37.172 40.1757 29.0962 41.3414 21.7359C42.9682 11.472 54.2077 4.81234 62.6932 3.35891L62.3794 7.06688C56.2652 8.14109 51.8616 13.7662 50.3129 17.545C49.2504 20.1388 49.2614 22.2295 50.3441 23.4319C50.7912 23.8907 51.3652 24.2054 51.9925 24.3355C52.6197 24.4656 53.2716 24.4052 53.8643 24.162C55.503 23.7042 57.2172 23.5808 58.9046 23.7993C60.592 24.0178 62.2182 24.5737 63.6863 25.4339C64.828 26.1327 65.805 27.0702 66.5503 28.182C67.2957 29.2938 67.7917 30.5538 68.0044 31.8753C68.3127 33.4953 68.2558 35.1636 67.838 36.7589C67.4202 38.3541 66.652 39.8361 65.5893 41.097Z" fill="url(#paint0_linear)"/>
<defs>
<linearGradient id="paint0_linear" x1="76.1764" y1="101.334" x2="113.371" y2="-14.3092" gradientUnits="userSpaceOnUse">
<stop stop-color="#94652E"/>
<stop offset="1" stop-color="#DCCA82"/>
</linearGradient>
</defs>
</svg>
