<svg width="24" height="32" viewBox="0 0 24 32" fill="none" xmlns="http://www.w3.org/2000/svg">
<path d="M12 24.838C5.36842 24.838 0 19.4696 0 12.8381C0 6.20647 5.36842 0.838051 12 0.838051C18.6316 0.838051 24 6.20647 24 12.8381C24 19.4696 18.6316 24.838 12 24.838ZM12 2.10121C6.06316 2.10121 1.26316 6.90121 1.26316 12.8381C1.26316 18.7749 6.06316 23.5749 12 23.5749C17.9368 23.5749 22.7368 18.7749 22.7368 12.8381C22.7368 6.90121 17.9368 2.10121 12 2.10121Z" fill="#DBBB74"/>
<path d="M12 19.7854C8.14741 19.7854 5.05267 16.6907 5.05267 12.838C5.05267 8.98542 8.14741 5.89068 12 5.89068C15.8527 5.89068 18.9474 8.98542 18.9474 12.838C18.9474 16.6907 15.8527 19.7854 12 19.7854ZM12 7.15384C8.84215 7.15384 6.31583 9.68015 6.31583 12.838C6.31583 15.9959 8.84215 18.5223 12 18.5223C15.1579 18.5223 17.6843 15.9959 17.6843 12.838C17.6843 9.68015 15.1579 7.15384 12 7.15384Z" fill="#DBBB74"/>
<path d="M12 15.9959C10.2316 15.9959 8.8421 14.6065 8.8421 12.8381C8.8421 11.0696 10.2316 9.68016 12 9.68016C13.7684 9.68016 15.1579 11.0696 15.1579 12.8381C15.1579 14.6065 13.7684 15.9959 12 15.9959ZM12 10.9433C10.9263 10.9433 10.1053 11.7644 10.1053 12.8381C10.1053 13.9117 10.9263 14.7328 12 14.7328C13.0737 14.7328 13.8947 13.9117 13.8947 12.8381C13.8947 11.7644 13.0737 10.9433 12 10.9433Z" fill="#DBBB74"/>
<path d="M21.4737 31.1538H17.0526V30.5223C17.0526 30.0802 15.5368 29.0065 12.1895 28.0591C12.0631 28.0591 11.9368 28.0591 11.8737 28.0591C8.46315 29.0065 6.94736 30.0802 6.94736 30.5223V31.1538H2.52631V30.5223C2.52631 27.0486 9.47367 24.3959 11.621 23.7012C11.8737 23.6381 12.1895 23.6381 12.4421 23.7012C14.5263 24.3959 21.4737 27.0486 21.4737 30.5223V31.1538ZM18.1895 29.8907H20.0842C19.2631 27.8065 14.7789 25.7854 12 24.9012C9.22104 25.8486 4.73683 27.8696 3.91578 29.8907H5.81052C6.4421 28.5012 9.15789 27.4907 11.4947 26.8591C11.8105 26.7959 12.1895 26.7959 12.5053 26.8591C14.8421 27.4907 17.4947 28.5012 18.1895 29.8907Z" fill="#DBBB74"/>
<path d="M12.6315 3.36436H11.3683V4.62752H12.6315V3.36436Z" fill="#DBBB74"/>
</svg>
