<svg width="100" height="100" viewBox="0 0 100 100" fill="none" xmlns="http://www.w3.org/2000/svg">
<path d="M18.0001 18C14.6934 18 12.0001 20.6933 12.0001 24V70H7.00007C6.33771 69.99 5.99201 70.5878 6.00007 71V75C6.00007 78.8607 9.13937 82 13.0001 82H87.0001C90.8608 82 94.0001 78.8607 94.0001 75V71C94 70.4764 93.5237 70.0001 93.0001 70H88.0001V24C88.0001 20.6933 85.3068 18 82.0001 18H18.0001ZM18.0001 20H82.0001C84.2334 20 86.0001 21.7667 86.0001 24V70H14.0001V24C14.0001 21.7667 15.7668 20 18.0001 20ZM73.5001 22.9688C73.2441 22.9688 73.0078 23.086 72.8126 23.2813C72.4221 23.6718 72.4221 24.297 72.8126 24.6875L81.2813 33.1875C81.6718 33.578 82.3283 33.578 82.7188 33.1875C83.1094 32.797 83.1093 32.1405 82.7188 31.75L74.2188 23.2813C74.0236 23.086 73.756 22.9688 73.5001 22.9688ZM69.2813 25.8125C69.0254 25.8125 68.7578 25.8985 68.5626 26.0938C68.1721 26.4843 68.1721 27.1408 68.5626 27.5313L78.4688 37.4063C78.8594 37.7968 79.4845 37.7967 79.8751 37.4063C80.2656 37.0157 80.2656 36.3905 79.8751 36L69.9688 26.0938C69.7736 25.8985 69.5373 25.8125 69.2813 25.8125ZM8.00007 72H92.0001V75C92.0001 77.7873 89.7874 80 87.0001 80H13.0001C10.2128 80 8.00007 77.7873 8.00007 75V72Z" fill="#B3924A"/>
</svg>
