<svg width="98" height="95" viewBox="0 0 98 95" fill="none" xmlns="http://www.w3.org/2000/svg">
<path d="M93.9999 47.4997C93.9999 21.8187 73.1812 1.00022 47.5 1.00022C21.8188 1.00022 0.999944 21.8187 0.999944 47.4997C0.999944 73.1813 21.8188 93.9998 47.5 93.9998C73.1812 93.9998 93.9999 73.1813 93.9999 47.4997Z" fill="white"/>
<path d="M93.9999 47.4997C93.9999 21.8187 73.1812 1.00022 47.5 1.00022C21.8188 1.00022 0.999944 21.8187 0.999944 47.4997C0.999944 73.1813 21.8188 93.9998 47.5 93.9998C73.1812 93.9998 93.9999 73.1813 93.9999 47.4997Z" fill="#2F3256"/>
<path d="M93.9999 47.4997C93.9999 21.8187 73.1812 1.00022 47.5 1.00022C21.8188 1.00022 0.999944 21.8187 0.999944 47.4997C0.999944 73.1813 21.8188 93.9998 47.5 93.9998C73.1812 93.9998 93.9999 73.1813 93.9999 47.4997Z" stroke="#DBBB74" stroke-width="2"/>
<path d="M56.6599 47.5673C56.6599 46.9686 56.4032 46.5836 56.0183 46.1987L46.0103 36.875C45.326 36.2334 44.2995 36.2762 43.6579 36.9605C43.0592 37.6021 43.0592 38.6285 43.7435 39.2701L52.5968 47.5673L43.7435 55.8218C43.0592 56.4634 43.0592 57.4898 43.6579 58.1741C44.2995 58.8157 45.326 58.8585 46.0103 58.2169L56.0183 48.8932C56.4032 48.5083 56.6599 48.1233 56.6599 47.5673Z" fill="#DBBB74"/>
</svg>
