<svg width="70" height="69" viewBox="0 0 70 69" fill="none" xmlns="http://www.w3.org/2000/svg">
<path d="M67.6875 34.8284C67.6875 16.5078 52.8285 1.65617 34.5 1.65617C16.1715 1.65617 1.31246 16.5078 1.31246 34.8284C1.31246 53.1491 16.1716 67.9998 34.5 67.9998C52.8284 67.9998 67.6875 53.1491 67.6875 34.8284Z" fill="white" stroke="#E3BA68" stroke-width="2"/>
<path d="M40.7093 35.0622C40.7093 34.6388 40.5278 34.3666 40.2557 34.0944L33.1788 27.5015C32.6949 27.0478 31.9691 27.0781 31.5154 27.5619C31.092 28.0156 31.092 28.7414 31.5759 29.1951L37.8362 35.0622L31.5759 40.8991C31.092 41.3527 31.092 42.0786 31.5154 42.5625C31.9691 43.0161 32.6949 43.0464 33.1788 42.5927L40.2557 35.9997C40.5278 35.7276 40.7093 35.4554 40.7093 35.0622Z" fill="#E3BA68"/>
</svg>
