<svg width="84" height="84" viewBox="0 0 84 84" fill="none" xmlns="http://www.w3.org/2000/svg">
<path d="M13.4399 44.7805C13.4399 60.5305 26.2499 73.3405 41.9999 73.3405C57.7499 73.3405 70.5599 60.5305 70.5599 44.7805C70.5599 39.2785 68.9891 33.9361 66.0239 29.3329C65.5199 28.5517 64.4867 28.3333 63.7055 28.8289C62.9243 29.3329 62.6975 30.3745 63.2015 31.1473C65.8139 35.2129 67.1999 39.9253 67.1999 44.7805C67.1999 58.6741 55.8935 69.9805 41.9999 69.9805C28.1063 69.9805 16.7999 58.6741 16.7999 44.7805C16.7999 30.8869 28.1063 19.5805 41.9999 19.5805C47.0315 19.5805 51.8699 21.0589 56.0279 23.8477L52.1555 24.5029C51.2399 24.6625 50.6267 25.5277 50.7779 26.4433C50.9207 27.2665 51.6263 27.8461 52.4327 27.8461C52.5251 27.8461 52.6175 27.8377 52.7183 27.8209L58.8671 26.7793C59.7491 26.6281 60.5219 26.1409 61.0427 25.4101C61.5635 24.6793 61.7651 23.7889 61.6139 22.9069L60.5723 16.7581C60.4211 15.8425 59.5559 15.2209 58.6319 15.3805C57.7163 15.5401 57.1031 16.4053 57.2543 17.3209L57.8927 21.0673C53.1887 17.8921 47.6951 16.2205 41.9999 16.2205C26.2499 16.2205 13.4399 29.0305 13.4399 44.7805Z" fill="#DAB973"/>
<path d="M41.9998 29.4001C41.0758 29.4001 40.3198 30.1561 40.3198 31.0801V45.3601C40.3198 45.8053 40.4962 46.2337 40.8154 46.5529L49.5682 55.2385C49.8958 55.5661 50.3242 55.7257 50.7526 55.7257C51.181 55.7257 51.6178 55.5577 51.9454 55.2301C52.6006 54.5749 52.5922 53.5081 51.937 52.8529L43.6798 44.6629V31.0801C43.6798 30.1561 42.9238 29.4001 41.9998 29.4001Z" fill="#DAB973"/>
</svg>
