<svg width="50" height="51" viewBox="0 0 50 51" fill="none" xmlns="http://www.w3.org/2000/svg">
<path d="M48.9327 25.4999C48.9327 12.2495 38.2061 1.50549 24.971 1.50549C11.736 1.50549 1.00928 12.2495 1.00928 25.4999C1.00928 38.7505 11.736 49.4945 24.971 49.4945C38.2061 49.4945 48.9327 38.7505 48.9327 25.4999Z" fill="white"/>
<path d="M48.9327 25.4999C48.9327 12.2495 38.2061 1.50549 24.971 1.50549C11.736 1.50549 1.00928 12.2495 1.00928 25.4999C1.00928 38.7505 11.736 49.4945 24.971 49.4945C38.2061 49.4945 48.9327 38.7505 48.9327 25.4999Z" fill="white"/>
<path d="M48.9327 25.4999C48.9327 12.2495 38.2061 1.50549 24.971 1.50549C11.736 1.50549 1.00928 12.2495 1.00928 25.4999C1.00928 38.7505 11.736 49.4945 24.971 49.4945C38.2061 49.4945 48.9327 38.7505 48.9327 25.4999Z" stroke="#DBBB74" stroke-width="2"/>
<path d="M32.8925 24.8364C32.8925 24.2376 32.6359 23.8527 32.2509 23.4678L22.2429 14.144C21.5586 13.5025 20.5321 13.5452 19.8906 14.2296C19.2918 14.8711 19.2918 15.8976 19.9761 16.5391L28.8294 24.8364L19.9761 33.0909C19.2918 33.7324 19.2918 34.7589 19.8906 35.4432C20.5321 36.0847 21.5586 36.1275 22.2429 35.486L32.2509 26.1622C32.6359 25.7773 32.8925 25.3924 32.8925 24.8364Z" fill="#DBBB74"/>
</svg>
