<svg width="105" height="105" viewBox="0 0 105 105" fill="none" xmlns="http://www.w3.org/2000/svg">
<path d="M3.49994 2.50012H102.5V101.5H3.49994V2.50012Z" fill="white" fill-opacity="0.01" stroke="#DBBB74" stroke-width="3"/>
<path d="M60.4372 32.3117C60.4627 32.4461 60.4616 32.5841 60.4338 32.718C60.406 32.8519 60.352 32.979 60.2751 33.092C60.1982 33.2051 60.0997 33.3018 59.9854 33.3768C59.871 33.4518 59.743 33.5035 59.6087 33.529C58.6533 33.7767 57.7842 34.2816 57.0957 34.9888C55.9505 36.1844 54.3816 36.8825 52.7267 36.9329C52.6525 36.9329 52.5768 36.931 52.5 36.9282C52.4232 36.931 52.3475 36.9329 52.2733 36.9329C50.6184 36.8825 49.0495 36.1844 47.9042 34.9888C47.2158 34.2816 46.3467 33.7767 45.3913 33.529C45.2559 33.5048 45.1266 33.4539 45.0109 33.3793C44.8952 33.3048 44.7955 33.208 44.7175 33.0947C44.6394 32.9814 44.5846 32.8537 44.5563 32.719C44.5279 32.5844 44.5265 32.4454 44.5521 32.3102C44.5778 32.175 44.63 32.0463 44.7058 31.9314C44.7815 31.8165 44.8793 31.7178 44.9934 31.6409C45.1076 31.5641 45.2358 31.5106 45.3708 31.4836C45.5057 31.4567 45.6447 31.4567 45.7796 31.4838C47.0921 31.7903 48.2941 32.4544 49.2522 33.4024C49.6543 33.8554 50.1476 34.2183 50.6998 34.4674C51.252 34.7164 51.8505 34.8459 52.4563 34.8475C52.4718 34.8475 52.485 34.8548 52.5004 34.8551C52.5158 34.8554 52.5286 34.8473 52.5437 34.8475C53.1493 34.8449 53.7475 34.715 54.2995 34.466C54.8516 34.217 55.345 33.8547 55.7477 33.4024C56.7058 32.4544 57.9078 31.7903 59.2203 31.4838C59.4914 31.433 59.7715 31.4916 59.9995 31.6468C60.2275 31.8019 60.3849 32.041 60.4372 32.3117ZM78 47.5568C78 47.8329 77.8903 48.0977 77.6951 48.2929C77.4999 48.4881 77.2351 48.5978 76.9591 48.5978H75.3445C74.6059 51.2095 73.6761 53.9274 72.7139 56.722C70.5569 62.9865 68.3255 69.4638 67.7382 76.0947C67.4799 79.0107 65.641 80.2272 64.0054 80.3938C63.8493 80.4095 63.6913 80.4172 63.5348 80.4177C62.2663 80.3475 61.0524 79.8785 60.0663 79.0776C59.0802 78.2766 58.3722 77.1847 58.0434 75.9576C57.8066 74.8797 57.6698 73.7823 57.6347 72.6793C57.2424 67.3901 56.5227 62.2262 52.5002 62.2262C48.4777 62.2262 47.758 67.3901 47.3657 72.6793C47.3306 73.7823 47.1938 74.8797 46.957 75.9576C46.6281 77.1847 45.9201 78.2765 44.934 79.0774C43.9479 79.8784 42.7341 80.3474 41.4656 80.4177C41.3095 80.4177 41.1525 80.4095 40.995 80.3938C39.3594 80.2272 37.5205 79.0108 37.2622 76.0947C36.6747 69.4639 34.4433 62.9865 32.2865 56.722C31.3243 53.9273 30.3945 51.2095 29.656 48.5978H28.0409C27.7649 48.5978 27.5001 48.4881 27.3049 48.2929C27.1097 48.0977 27 47.8329 27 47.5568C27 47.2807 27.1097 47.016 27.3049 46.8208C27.5001 46.6255 27.7649 46.5159 28.0409 46.5159H29.1078C28.5726 44.45 28.2536 42.334 28.1559 40.2022C28.0163 38.3572 28.2597 36.5034 28.8707 34.757C29.4818 33.0106 30.4473 31.4094 31.7066 30.0539C34.3959 27.4255 38.0162 25.9683 41.7764 26.0005C44.1011 25.9969 46.3823 26.6308 48.3718 27.8333C49.6074 28.6255 51.0332 29.071 52.5 29.1233C53.9668 29.071 55.3926 28.6255 56.6282 27.8333C58.6177 26.6308 60.8989 25.9969 63.2235 26.0005C66.9838 25.9683 70.6041 27.4255 73.2934 30.0539C74.5527 31.4094 75.5182 33.0106 76.1293 34.757C76.7403 36.5034 76.9837 38.3572 76.8441 40.2022C76.7464 42.334 76.4274 44.45 75.8922 46.5159H76.9591C77.2351 46.5159 77.4999 46.6255 77.6951 46.8208C77.8903 47.016 78 47.2807 78 47.5568ZM73.1768 48.5978H61.5208V50.0285C61.5198 50.8737 61.1836 51.684 60.5859 52.2816C59.9883 52.8792 59.1781 53.2154 58.3329 53.2164H46.6671C45.8219 53.2154 45.0117 52.8792 44.4141 52.2816C43.8164 51.684 43.4802 50.8737 43.4792 50.0285V48.5978H31.8232C32.5206 50.9881 33.3722 53.4814 34.2551 56.0439C36.4529 62.4268 38.7259 69.0267 39.3358 75.9108C39.4639 77.3562 40.1277 78.2127 41.2052 78.3225C42.0731 78.3226 42.9158 78.0305 43.5974 77.4932C44.279 76.9559 44.7598 76.2047 44.9623 75.3607C45.1449 74.4256 45.2543 73.4777 45.2896 72.5256C45.6322 67.8948 46.2076 60.1442 52.5 60.1442C58.7924 60.1442 59.3678 67.8948 59.7104 72.5256C59.7457 73.4777 59.8551 74.4256 60.0376 75.3607C60.2431 76.2031 60.7248 76.9524 61.4057 77.4892C62.0867 78.026 62.9277 78.3194 63.7948 78.3225C64.8723 78.2127 65.5361 77.3562 65.6642 75.9108C66.2741 69.0267 68.5471 62.4268 70.7449 56.0439C71.6278 53.4813 72.4792 50.9881 73.1768 48.5978ZM46.6671 51.1345H58.3329C58.6261 51.1342 58.9073 51.0176 59.1146 50.8103C59.322 50.6029 59.4386 50.3218 59.4389 50.0285V45.0851C59.4386 44.7919 59.322 44.5107 59.1147 44.3034C58.9073 44.096 58.6261 43.9794 58.3329 43.9791H46.6671C46.3738 43.9794 46.0927 44.096 45.8853 44.3034C45.678 44.5107 45.5614 44.7919 45.5611 45.0851V50.0285C45.5614 50.3218 45.678 50.6029 45.8854 50.8103C46.0927 51.0176 46.3739 51.1342 46.6671 51.1345ZM74.7621 40.1431C74.8892 38.5771 74.6918 37.0016 74.1823 35.5153C73.6728 34.029 72.8621 32.6638 71.8009 31.5051C69.5057 29.2766 66.4224 28.0463 63.2235 28.0824C61.2382 28.079 59.2914 28.6302 57.6025 29.6738C56.0689 30.6306 54.307 31.1594 52.5 31.2052C50.6931 31.1593 48.9314 30.6305 47.3979 29.6738C45.7089 28.6301 43.7619 28.079 41.7764 28.0824C38.5776 28.0463 35.4943 29.2766 33.1991 31.5051C32.1379 32.6638 31.3272 34.029 30.8177 35.5153C30.3082 37.0016 30.1108 38.5771 30.2379 40.1431C30.3456 42.2979 30.6868 44.4347 31.2554 46.5159H43.4792V45.0851C43.4802 44.2399 43.8164 43.4297 44.4141 42.8321C45.0117 42.2344 45.8219 41.8982 46.6671 41.8972H58.3329C59.1781 41.8982 59.9883 42.2344 60.5859 42.8321C61.1836 43.4297 61.5198 44.2399 61.5208 45.0851V46.5159H73.7448C74.3134 44.4347 74.6546 42.2979 74.7623 40.1431H74.7621ZM48.0016 48.5292V49.1426C48.0016 49.4187 48.1112 49.6834 48.3065 49.8786C48.5017 50.0739 48.7664 50.1835 49.0425 50.1835C49.3186 50.1835 49.5834 50.0739 49.7786 49.8786C49.9738 49.6834 50.0835 49.4187 50.0835 49.1426V48.5292H54.9161V49.1426C54.9161 49.4187 55.0258 49.6834 55.221 49.8786C55.4162 50.0739 55.681 50.1835 55.9571 50.1835C56.2331 50.1835 56.4979 50.0739 56.6931 49.8786C56.8883 49.6834 56.998 49.4187 56.998 49.1426V48.5292C57.2741 48.5292 57.5388 48.4195 57.7341 48.2243C57.9293 48.0291 58.0389 47.7643 58.0389 47.4882C58.0389 47.2121 57.9293 46.9474 57.7341 46.7522C57.5388 46.557 57.2741 46.4473 56.998 46.4473V45.8338C56.998 45.5577 56.8883 45.2929 56.6931 45.0977C56.4979 44.9025 56.2331 44.7928 55.9571 44.7928C55.681 44.7928 55.4162 44.9025 55.221 45.0977C55.0258 45.2929 54.9161 45.5577 54.9161 45.8338V46.4473H50.0837V45.8338C50.0837 45.5577 49.974 45.2929 49.7788 45.0977C49.5836 44.9025 49.3188 44.7928 49.0427 44.7928C48.7667 44.7928 48.5019 44.9025 48.3067 45.0977C48.1115 45.2929 48.0018 45.5577 48.0018 45.8338V46.4473C47.7257 46.4473 47.4609 46.557 47.2657 46.7522C47.0705 46.9474 46.9608 47.2121 46.9608 47.4882C46.9608 47.7643 47.0705 48.0291 47.2657 48.2243C47.4609 48.4195 47.7257 48.5292 48.0018 48.5292H48.0016Z" fill="#BB903B"/>
</svg>
