<svg width="50" height="50" viewBox="0 0 50 50" fill="none" xmlns="http://www.w3.org/2000/svg">
<path d="M36.4792 25.8125C36.6129 25.7233 36.7226 25.6025 36.7985 25.4608C36.8743 25.319 36.914 25.1608 36.9141 25V22.1372L40.0833 24.25C40.2304 24.348 40.4013 24.4043 40.5778 24.4129C40.7544 24.4214 40.9299 24.3819 41.0858 24.2985C41.2416 24.2151 41.3719 24.0909 41.4627 23.9393C41.5536 23.7877 41.6016 23.6143 41.6016 23.4375V9.375C41.6016 9.24675 41.5763 9.11976 41.5272 9.00128C41.4782 8.88279 41.4062 8.77513 41.3156 8.68445C41.2249 8.59376 41.1172 8.52183 40.9987 8.47275C40.8802 8.42368 40.7532 8.39843 40.625 8.39844H36.9141V6.25C36.9141 6.12175 36.8888 5.99476 36.8397 5.87627C36.7907 5.75779 36.7187 5.65013 36.6281 5.55945C36.5374 5.46876 36.4297 5.39683 36.3112 5.34776C36.1927 5.29868 36.0657 5.27343 35.9375 5.27344H14.0625C13.9343 5.27343 13.8073 5.29868 13.6888 5.34776C13.5703 5.39683 13.4626 5.46876 13.3719 5.55945C13.2813 5.65013 13.2093 5.75779 13.1603 5.87627C13.1112 5.99476 13.0859 6.12175 13.0859 6.25V8.39844H9.375C9.24675 8.39843 9.11976 8.42368 9.00128 8.47275C8.88279 8.52183 8.77513 8.59376 8.68445 8.68445C8.59376 8.77513 8.52183 8.88279 8.47275 9.00128C8.42368 9.11976 8.39843 9.24675 8.39844 9.375V23.4375C8.39845 23.6143 8.44643 23.7877 8.53726 23.9393C8.6281 24.0909 8.75838 24.2151 8.91422 24.2985C9.07006 24.3819 9.24561 24.4214 9.42216 24.4129C9.5987 24.4043 9.76962 24.348 9.91669 24.25L13.0859 22.1372V25C13.086 25.1608 13.1257 25.319 13.2015 25.4608C13.2774 25.6025 13.3871 25.7233 13.5208 25.8125L22.4609 31.7726V33.3984H21.875C21.7468 33.3984 21.6198 33.4237 21.5013 33.4728C21.3828 33.5218 21.2751 33.5938 21.1844 33.6844C21.0938 33.7751 21.0218 33.8828 20.9728 34.0013C20.9237 34.1198 20.8984 34.2468 20.8984 34.375V36.5234H18.75C18.491 36.5235 18.2426 36.6264 18.0595 36.8095L14.9345 39.9345C14.7514 40.1176 14.6485 40.366 14.6484 40.625V43.75C14.6484 43.8782 14.6737 44.0052 14.7228 44.1237C14.7718 44.2422 14.8438 44.3499 14.9344 44.4406C15.0251 44.5312 15.1328 44.6032 15.2513 44.6522C15.3698 44.7013 15.4968 44.7266 15.625 44.7266H34.375C34.5032 44.7266 34.6302 44.7013 34.7487 44.6522C34.8672 44.6032 34.9749 44.5312 35.0656 44.4406C35.1562 44.3499 35.2282 44.2422 35.2772 44.1237C35.3263 44.0052 35.3516 43.8782 35.3516 43.75V40.625C35.3515 40.366 35.2486 40.1176 35.0655 39.9345L31.9405 36.8095C31.7574 36.6264 31.509 36.5235 31.25 36.5234H29.1016V34.375C29.1016 34.2468 29.0763 34.1198 29.0272 34.0013C28.9782 33.8828 28.9062 33.7751 28.8156 33.6844C28.7249 33.5938 28.6172 33.5218 28.4987 33.4728C28.3802 33.4237 28.2532 33.3984 28.125 33.3984H27.5391V31.7726L36.4792 25.8125ZM39.6484 10.3516V21.6129L36.9141 19.7899V10.3516H39.6484ZM10.3516 21.6129V10.3516H13.0859V19.7899L10.3516 21.6129ZM26.5625 35.3516H27.1484V36.5234H22.8516V35.3516H26.5625ZM30.8456 38.4766L33.3984 41.0294V42.7734H16.6016V41.0294L19.1544 38.4766H30.8456ZM26.0208 30.4375C25.8871 30.5267 25.7774 30.6475 25.7015 30.7892C25.6257 30.931 25.586 31.0892 25.5859 31.25V33.3984H24.4141V31.25C24.414 31.0892 24.3743 30.931 24.2985 30.7892C24.2226 30.6475 24.1129 30.5267 23.9792 30.4375L15.0391 24.4774V7.22656H34.9609V24.4774L26.0208 30.4375Z" fill="#DAB973"/>
<rect x="0.5" y="0.5" width="49" height="49" stroke="black"/>
</svg>
