<svg width="79" height="79" viewBox="0 0 79 79" fill="none" xmlns="http://www.w3.org/2000/svg">
<path d="M12.6878 39.4184V42.2842C12.6878 44.5613 14.5413 46.4147 16.8201 46.4147H21.7641C22.2181 46.4147 22.6496 46.3236 23.0594 46.1873C23.3745 47.8966 24.6533 49.2561 26.3079 49.711C26.2958 50.5167 26.3261 51.0879 26.34 51.2832V54.201C26.34 56.8714 28.5104 59.0434 31.1773 59.0434H40.817L47.8992 66.6613V70.9698H50.8509V66.0814C50.8509 65.7081 50.7102 65.3487 50.4559 65.0761L44.1107 58.2517C44.3633 58.0876 44.596 57.894 44.813 57.6839L51.2684 63.4232L53.2131 71.3232L56.0805 70.6174L53.9154 61.8275L42.9387 52.068L56.5423 59.3942C56.8575 59.6433 57.0762 59.9975 57.1683 60.4385L59.4827 70.0019L62.3519 69.3082L60.0487 59.7926C59.81 58.6415 59.1537 57.631 58.1987 56.9478L46.3279 50.5436C46.3331 50.3517 46.3349 50.1364 46.3331 49.889H52.259C54.4701 49.889 56.3062 48.2899 56.6943 46.1873C57.1032 46.3227 57.532 46.4147 57.9861 46.4147H62.9335C65.2106 46.4147 67.0641 44.5613 67.0641 42.2842V39.4167C68.1015 39.1129 69.2327 38.3298 69.9194 36.6126C70.9941 33.9249 70.1859 27.3106 69.9993 25.9268C69.8925 25.3721 67.0711 12.3501 40.0739 12.3501C13.114 12.3501 9.88459 25.3295 9.76045 25.8825C9.75003 25.9251 9.74222 25.9676 9.73701 26.011C9.56425 27.3097 8.75689 33.924 9.8299 36.6135C10.5192 38.3315 11.6504 39.1155 12.6878 39.4184ZM22.9448 42.2842C22.9448 42.9353 22.4143 43.4622 21.765 43.4622H16.821C16.1699 43.4622 15.6412 42.9353 15.6412 42.2842V38.296C15.6646 38.1501 15.6629 38.0008 15.6412 37.8497V36.0952C15.6446 34.4892 16.1716 30.9698 17.7082 30.9698C22.3527 30.9698 22.9422 39.9194 22.9456 39.9359V42.2842H22.9448ZM25.9285 45.3669V42.6757C25.9285 42.6366 25.9268 42.5975 25.9233 42.5585C25.9199 42.5012 25.5014 36.6717 28.1883 33.7686C29.1806 32.6974 30.4758 32.1748 32.1478 32.1748C34.8764 32.1748 36.7307 33.6671 37.6857 36.6152C37.2429 36.5597 36.7906 36.5224 36.3192 36.5224C33.5924 36.5224 31.3509 37.453 29.6554 39.2882C27.7534 41.35 26.9156 44.2019 26.5579 46.6161C26.1777 46.3296 25.9285 45.8791 25.9285 45.3669ZM41.1209 47.7352C40.7614 47.4877 39.9089 47.0024 38.9609 47.2065C38.3576 47.3332 37.8541 47.7117 37.5398 48.2717C37.0363 49.1719 37.1005 49.9437 37.2412 50.4333C37.4782 51.2554 38.0598 51.7459 38.3793 51.963L42.5863 55.7037C42.2677 55.9442 41.8796 56.0918 41.4603 56.0918H31.1781C30.139 56.0918 29.2926 55.2436 29.2926 54.201V51.2285C29.2926 51.1912 29.2908 51.1504 29.2873 51.1131C29.2821 51.0471 28.816 44.543 31.8292 41.2858C32.9587 40.0669 34.4267 39.4749 36.3192 39.4749C37.2498 39.4749 38.0789 39.6207 38.8151 39.9124C38.9644 40.0175 39.132 40.0973 39.3117 40.1416C39.8664 40.4281 40.363 40.8066 40.8075 41.2858C42.7217 43.3546 43.2304 46.7299 43.3476 48.9366L41.1209 47.7352ZM53.8294 42.5567C53.8277 42.5958 53.826 42.6366 53.826 42.6757V45.3669C53.826 46.2333 53.1219 46.9373 52.259 46.9373H46.1248C45.794 44.4571 44.9684 41.4421 42.9795 39.2882C42.5593 38.8325 42.1027 38.4323 41.6148 38.0876C42.6444 32.1921 46.3626 32.1748 47.6067 32.1748C49.277 32.1748 50.5722 32.6974 51.5662 33.7686C54.2513 36.6717 53.8346 42.5012 53.8294 42.5567ZM64.1133 42.2842C64.1133 42.9353 63.5846 43.4622 62.9353 43.4622H57.9878C57.3384 43.4622 56.8097 42.9353 56.8097 42.2842V41.8197C56.8097 41.7381 56.8097 41.6487 56.8097 41.5584L56.808 40.0088C56.8132 39.9176 57.3844 30.9698 62.0472 30.9698C63.5838 30.9698 64.109 34.4901 64.1142 36.0935V42.2842H64.1133ZM12.6505 26.4963C12.8961 25.6872 16.5249 15.3017 40.0748 15.3017C63.7704 15.3017 66.9243 25.8105 67.0971 26.4685C67.453 29.1936 67.7873 33.997 67.1804 35.5162C67.1414 35.6143 67.0988 35.6942 67.058 35.7758C66.9869 32.7495 65.873 28.0164 62.0463 28.0164C58.2769 28.0164 56.2359 30.8734 55.1334 33.793C54.7549 33.0707 54.3026 32.3805 53.74 31.7719C52.1782 30.08 50.1147 29.2214 47.6075 29.2214C43.984 29.2214 41.3118 30.9021 39.8065 34.0195C38.2699 30.8995 35.6508 29.2214 32.1496 29.2214C29.6398 29.2214 27.5763 30.0791 26.0154 31.7719C25.4545 32.3805 25.0014 33.0689 24.6229 33.7895C23.5221 30.8778 21.4811 28.0164 17.7082 28.0164C13.8797 28.0164 12.7677 32.7521 12.6965 35.7784C12.6539 35.695 12.6114 35.6152 12.5723 35.5171C11.9672 34.003 12.2963 29.2248 12.6505 26.4963Z" fill="#DAB973"/>
</svg>
