<svg width="34" height="34" viewBox="0 0 34 34" fill="none" xmlns="http://www.w3.org/2000/svg">
<g clip-path="url(#clip0)">
<path d="M4.7693 2.13079L29.2644 17L4.73574 31.8697L4.7693 2.13134V2.13079ZM4.7693 0.000549316C4.20417 0.000549316 3.6622 0.225041 3.2626 0.624643C2.86299 1.02424 2.6385 1.56622 2.6385 2.13134L2.60547 31.8697C2.60524 32.2497 2.70666 32.6228 2.89916 32.9505C3.09166 33.2781 3.36827 33.5483 3.70032 33.7331C4.03238 33.9178 4.40779 34.0104 4.78767 34.0012C5.16754 33.9921 5.53804 33.8814 5.8608 33.6809L30.3884 18.8112C30.696 18.6199 30.9498 18.3534 31.1258 18.0368C31.3018 17.7201 31.3941 17.3639 31.3941 17.0016C31.3941 16.6394 31.3018 16.2831 31.1258 15.9665C30.9498 15.6498 30.696 15.3833 30.3884 15.192L5.89383 0.323342C5.55612 0.114045 5.16661 0.0033516 4.7693 0.00373562V0.000549316Z" fill="#F4F4F8"/>
</g>
<defs>
<clipPath id="clip0">
<rect width="34" height="34" fill="white"/>
</clipPath>
</defs>
</svg>
