<svg width="100" height="100" viewBox="0 0 100 100" fill="none" xmlns="http://www.w3.org/2000/svg">
<path d="M74.9001 38.3C74.9001 37.5 74.2001 36.8 73.4001 36.8H26.6001C25.8001 36.8 25.1001 37.5 25.1001 38.3C25.1001 52 36.2001 63.2 50.0001 63.2C59.6001 63.2 67.9001 57.7 72.1001 49.8C72.1001 49.7 72.2001 49.6 72.2001 49.6C74.0001 46.2 74.9001 42.3 74.9001 38.3ZM71.9001 39.8C71.7001 42.5 71.0001 45.1 69.9001 47.5H30.1001C29.0001 45.1 28.3001 42.5 28.1001 39.8H71.9001ZM50.0001 60.2C42.4001 60.2 35.8001 56.3 31.8001 50.5H68.2001C64.2001 56.4 57.6001 60.2 50.0001 60.2Z" fill="#DAB973"/>
</svg>
