<svg width="196" height="33" viewBox="0 0 196 33" fill="none" xmlns="http://www.w3.org/2000/svg">
<path fill-rule="evenodd" clip-rule="evenodd" d="M18.4181 0.456977C18.2639 0.464251 18.1156 0.516871 17.993 0.607892C17.8703 0.698913 17.779 0.82403 17.7312 0.966626L13.9094 12.1063H1.66991C1.50984 12.1068 1.354 12.1563 1.22455 12.2478C1.0951 12.3392 0.998623 12.4681 0.948834 12.6159C0.899045 12.7637 0.898477 12.923 0.947211 13.0711C0.995946 13.2193 1.0915 13.3487 1.2203 13.4411L11.1618 20.5035L7.34006 32.0314C7.29031 32.1802 7.29041 32.3405 7.34033 32.4892C7.39025 32.638 7.48743 32.7675 7.6179 32.8592C7.74836 32.9509 7.90539 33.0001 8.06642 32.9996C8.22744 32.9991 8.38416 32.949 8.51405 32.8566L18.4555 25.7942L28.397 32.8566C28.5269 32.949 28.6836 32.9991 28.8447 32.9996C29.0057 33.0001 29.1627 32.9509 29.2932 32.8592C29.4236 32.7675 29.5208 32.638 29.5707 32.4892C29.6207 32.3405 29.6208 32.1802 29.571 32.0314L25.7493 20.5035L35.6908 13.4411C35.8196 13.3487 35.9151 13.2193 35.9639 13.0711C36.0126 12.923 36.012 12.7637 35.9622 12.6159C35.9124 12.4681 35.816 12.3392 35.6865 12.2478C35.5571 12.1563 35.4012 12.1068 35.2412 12.1063H23.0016L19.1799 0.966626C19.1281 0.812189 19.0255 0.678605 18.8878 0.586494C18.7501 0.494383 18.585 0.448871 18.4181 0.456977Z" fill="#B3924A"/>
<path fill-rule="evenodd" clip-rule="evenodd" d="M58.4181 0.456977C58.2639 0.464251 58.1156 0.516871 57.993 0.607892C57.8703 0.698913 57.779 0.82403 57.7312 0.966626L53.9094 12.1063H41.6699C41.5098 12.1068 41.354 12.1563 41.2246 12.2478C41.0951 12.3392 40.9986 12.4681 40.9488 12.6159C40.899 12.7637 40.8985 12.923 40.9472 13.0711C40.9959 13.2193 41.0915 13.3487 41.2203 13.4411L51.1618 20.5035L47.3401 32.0314C47.2903 32.1802 47.2904 32.3405 47.3403 32.4892C47.3903 32.638 47.4874 32.7675 47.6179 32.8592C47.7484 32.9509 47.9054 33.0001 48.0664 32.9996C48.2274 32.9991 48.3842 32.949 48.5141 32.8566L58.4555 25.7942L68.397 32.8566C68.5269 32.949 68.6836 32.9991 68.8447 32.9996C69.0057 33.0001 69.1627 32.9509 69.2932 32.8592C69.4236 32.7675 69.5208 32.638 69.5707 32.4892C69.6207 32.3405 69.6208 32.1802 69.571 32.0314L65.7493 20.5035L75.6908 13.4411C75.8196 13.3487 75.9151 13.2193 75.9639 13.0711C76.0126 12.923 76.012 12.7637 75.9622 12.6159C75.9124 12.4681 75.816 12.3392 75.6865 12.2478C75.5571 12.1563 75.4012 12.1068 75.2412 12.1063H63.0016L59.1799 0.966626C59.1281 0.812189 59.0255 0.678605 58.8878 0.586494C58.7501 0.494383 58.585 0.448871 58.4181 0.456977Z" fill="#B3924A"/>
<path fill-rule="evenodd" clip-rule="evenodd" d="M98.4181 0.456977C98.2639 0.464251 98.1156 0.516871 97.993 0.607892C97.8703 0.698913 97.779 0.82403 97.7312 0.966626L93.9094 12.1063H81.6699C81.5098 12.1068 81.354 12.1563 81.2246 12.2478C81.0951 12.3392 80.9986 12.4681 80.9488 12.6159C80.899 12.7637 80.8985 12.923 80.9472 13.0711C80.9959 13.2193 81.0915 13.3487 81.2203 13.4411L91.1618 20.5035L87.3401 32.0314C87.2903 32.1802 87.2904 32.3405 87.3403 32.4892C87.3903 32.638 87.4874 32.7675 87.6179 32.8592C87.7484 32.9509 87.9054 33.0001 88.0664 32.9996C88.2274 32.9991 88.3842 32.949 88.5141 32.8566L98.4555 25.7942L108.397 32.8566C108.527 32.949 108.684 32.9991 108.845 32.9996C109.006 33.0001 109.163 32.9509 109.293 32.8592C109.424 32.7675 109.521 32.638 109.571 32.4892C109.621 32.3405 109.621 32.1802 109.571 32.0314L105.749 20.5035L115.691 13.4411C115.82 13.3487 115.915 13.2193 115.964 13.0711C116.013 12.923 116.012 12.7637 115.962 12.6159C115.912 12.4681 115.816 12.3392 115.687 12.2478C115.557 12.1563 115.401 12.1068 115.241 12.1063H103.002L99.1799 0.966626C99.1281 0.812189 99.0255 0.678605 98.8878 0.586494C98.7501 0.494383 98.585 0.448871 98.4181 0.456977Z" fill="#B3924A"/>
<path fill-rule="evenodd" clip-rule="evenodd" d="M138.418 0.456977C138.264 0.464251 138.116 0.516871 137.993 0.607892C137.87 0.698913 137.779 0.82403 137.731 0.966626L133.909 12.1063H121.67C121.51 12.1068 121.354 12.1563 121.225 12.2478C121.095 12.3392 120.999 12.4681 120.949 12.6159C120.899 12.7637 120.898 12.923 120.947 13.0711C120.996 13.2193 121.092 13.3487 121.22 13.4411L131.162 20.5035L127.34 32.0314C127.29 32.1802 127.29 32.3405 127.34 32.4892C127.39 32.638 127.487 32.7675 127.618 32.8592C127.748 32.9509 127.905 33.0001 128.066 32.9996C128.227 32.9991 128.384 32.949 128.514 32.8566L138.456 25.7942L148.397 32.8566C148.527 32.949 148.684 32.9991 148.845 32.9996C149.006 33.0001 149.163 32.9509 149.293 32.8592C149.424 32.7675 149.521 32.638 149.571 32.4892C149.621 32.3405 149.621 32.1802 149.571 32.0314L145.749 20.5035L155.691 13.4411C155.82 13.3487 155.915 13.2193 155.964 13.0711C156.013 12.923 156.012 12.7637 155.962 12.6159C155.912 12.4681 155.816 12.3392 155.687 12.2478C155.557 12.1563 155.401 12.1068 155.241 12.1063H143.002L139.18 0.966626C139.128 0.812189 139.025 0.678605 138.888 0.586494C138.75 0.494383 138.585 0.448871 138.418 0.456977Z" fill="#B3924A"/>
<path fill-rule="evenodd" clip-rule="evenodd" d="M178.418 0.456977C178.264 0.464251 178.116 0.516871 177.993 0.607892C177.87 0.698913 177.779 0.82403 177.731 0.966626L173.909 12.1063H161.67C161.51 12.1068 161.354 12.1563 161.225 12.2478C161.095 12.3392 160.999 12.4681 160.949 12.6159C160.899 12.7637 160.899 12.923 160.947 13.0711C160.996 13.2193 161.092 13.3487 161.22 13.4411L171.162 20.5035L167.34 32.0314C167.29 32.1802 167.29 32.3405 167.34 32.4892C167.39 32.638 167.487 32.7675 167.618 32.8592C167.748 32.9509 167.905 33.0001 168.066 32.9996C168.227 32.9991 168.384 32.949 168.514 32.8566L178.456 25.7942L188.397 32.8566C188.527 32.949 188.684 32.9991 188.845 32.9996C189.006 33.0001 189.163 32.9509 189.293 32.8592C189.424 32.7675 189.521 32.638 189.571 32.4892C189.621 32.3405 189.621 32.1802 189.571 32.0314L185.749 20.5035L195.691 13.4411C195.82 13.3487 195.915 13.2193 195.964 13.0711C196.013 12.923 196.012 12.7637 195.962 12.6159C195.913 12.4681 195.816 12.3392 195.687 12.2478C195.557 12.1563 195.401 12.1068 195.241 12.1063H183.002L179.18 0.966626C179.128 0.812189 179.026 0.678605 178.888 0.586494C178.75 0.494383 178.585 0.448871 178.418 0.456977Z" fill="#B3924A"/>
</svg>
