<svg width="13" height="19" viewBox="0 0 13 19" fill="none" xmlns="http://www.w3.org/2000/svg">
<path d="M2.8892 6.99654C3.38482 6.70731 4.25177 6.20169 4.85617 5.84924C5.05358 5.73409 5.21133 5.56082 5.30822 5.35267C5.40511 5.14452 5.43652 4.91147 5.39823 4.68481L4.84768 1.40508C4.81219 1.19213 4.71673 0.99395 4.57267 0.83415C4.42861 0.674351 4.24203 0.559665 4.03514 0.503754C3.57611 0.379753 2.95396 0.211683 2.37494 0.0552732C2.15985 -0.0027043 1.9352 -0.0152377 1.71508 0.0184595C1.49496 0.0521567 1.28413 0.131357 1.0958 0.251091C0.907482 0.370825 0.745741 0.528507 0.620728 0.714243C0.495715 0.899979 0.41013 1.10976 0.369344 1.33042C-0.209982 4.43173 -0.335905 8.61941 1.71963 12.2205C1.72269 12.2258 1.73535 12.248 1.73846 12.2533C3.91703 16.044 6.67206 17.7219 10.4611 18.9243C10.6692 18.9906 10.8885 19.0137 11.1057 18.9922C11.323 18.9708 11.5336 18.9052 11.7251 18.7995C11.9165 18.6938 12.0847 18.5502 12.2197 18.3772C12.3546 18.2042 12.4534 18.0055 12.5101 17.793L12.9619 16.0932C13.0173 15.8845 13.0122 15.6641 12.9471 15.4582C12.8819 15.2523 12.7595 15.0697 12.5944 14.9319L10.0519 12.8101C9.87633 12.6633 9.66044 12.5741 9.43319 12.5546C9.20593 12.5351 8.9782 12.5862 8.78056 12.7009C8.1755 13.0523 7.30759 13.5563 6.8113 13.8444C6.69289 13.9137 6.55722 13.9472 6.42045 13.941C6.28367 13.9348 6.15155 13.8891 6.0398 13.8093C5.065 13.0911 4.24963 12.1757 3.64587 11.1216C3.0421 10.0674 2.66323 8.89789 2.53349 7.68771C2.52085 7.55025 2.54765 7.41202 2.61072 7.28949C2.67378 7.16695 2.77044 7.06527 2.8892 6.99654V6.99654Z" fill="#B3924A"/>
</svg>
