<svg width="53" height="53" viewBox="0 0 53 53" fill="none" xmlns="http://www.w3.org/2000/svg">
<g clip-path="url(#clip0)">
<path d="M7.43441 3.3214L45.6179 26.4999L7.38211 49.6791L7.43441 3.32226V3.3214ZM7.43441 0.000732422C6.55349 0.000732422 5.70864 0.350676 5.08573 0.973584C4.46282 1.59649 4.11288 2.44134 4.11288 3.32226L4.06139 49.6791C4.06103 50.2715 4.21913 50.8531 4.5192 51.3638C4.81928 51.8745 5.25046 52.2958 5.76807 52.5838C6.28568 52.8717 6.87089 53.0161 7.46305 53.0018C8.05521 52.9875 8.63275 52.8151 9.13587 52.5025L47.37 29.3232C47.8496 29.0251 48.2452 28.6096 48.5195 28.116C48.7939 27.6224 48.9378 27.0671 48.9378 26.5024C48.9378 25.9377 48.7939 25.3824 48.5195 24.8888C48.2452 24.3952 47.8496 23.9797 47.37 23.6816L9.18737 0.503909C8.66093 0.177653 8.05375 0.00510069 7.43441 0.00569931V0.000732422Z" fill="#2F3256"/>
</g>
<defs>
<clipPath id="clip0">
<rect width="53" height="53" fill="white"/>
</clipPath>
</defs>
</svg>
